<?xml version="1.0" standalone="no"?>
<!DOCTYPE svg PUBLIC "-//W3C//DTD SVG 20010904//EN"
 "http://www.w3.org/TR/2001/REC-SVG-20010904/DTD/svg10.dtd">
<svg version="1.0" xmlns="http://www.w3.org/2000/svg"
 width="1024.000000pt" height="1024.000000pt" viewBox="0 0 1024.000000 1024.000000"
 preserveAspectRatio="xMidYMid meet">

<g transform="translate(0.000000,1024.000000) scale(0.100000,-0.100000)"
fill="#000000" stroke="none">
<path d="M4885 9045 c-210 -39 -372 -105 -551 -223 -337 -222 -551 -552 -614
-947 -16 -100 -13 -354 5 -456 30 -172 97 -339 198 -489 51 -76 167 -220 206
-254 11 -11 21 -23 21 -28 0 -12 -403 -10 -435 2 -15 6 -75 57 -133 114 -59
58 -120 110 -135 115 -17 7 -114 11 -237 11 -197 0 -209 1 -215 19 -16 52
-125 121 -189 121 -146 0 -240 -162 -175 -297 59 -122 215 -144 320 -46 l47
44 196 -3 196 -3 109 -109 c60 -60 122 -116 137 -125 24 -13 77 -17 324 -19
219 -3 292 -1 284 8 -8 8 -95 11 -293 10 -194 0 -288 3 -304 11 -36 18 -87 71
-80 83 3 6 2 8 -2 3 -5 -4 -45 29 -91 73 l-82 80 -201 0 c-172 0 -200 2 -189
14 7 8 18 11 23 8 6 -3 6 -1 2 4 -5 5 -15 9 -23 9 -12 0 -21 14 -9 16 2 0 19
4 37 9 20 6 36 6 44 -1 9 -7 19 -7 33 1 12 6 21 7 21 3 0 -4 28 -8 63 -7 94 2
99 3 92 17 -4 6 -1 5 7 -4 7 -9 18 -14 25 -12 16 6 28 -18 13 -27 -7 -5 -2 -7
15 -7 15 0 22 2 16 6 -6 4 -7 18 -3 35 7 27 9 28 25 12 9 -10 17 -31 17 -47 0
-22 6 -30 24 -35 14 -3 30 -3 35 1 6 3 8 0 5 -8 -3 -8 0 -18 7 -23 8 -4 10 -3
5 4 -13 22 13 12 28 -10 9 -12 16 -17 16 -10 0 8 5 10 12 6 7 -4 8 -3 4 4 -4
7 -2 12 3 12 6 0 11 5 11 11 0 8 -5 7 -16 -1 -12 -11 -18 -10 -32 4 -14 14
-15 16 -1 11 10 -4 16 0 16 9 0 8 -3 13 -7 11 -4 -2 -7 2 -7 10 0 8 4 12 9 9
4 -3 8 2 8 10 0 9 -4 16 -10 16 -12 0 -31 -35 -24 -43 3 -3 -2 -4 -13 -3 -10
2 -21 -1 -24 -7 -10 -14 -39 -1 -39 18 0 17 31 20 47 4 8 -8 13 -8 17 0 4 6 0
11 -9 11 -19 0 -36 40 -24 56 6 8 4 14 -5 17 -11 4 -13 1 -10 -11 5 -15 4 -15
-9 1 -12 14 -31 17 -105 17 -63 0 -92 -4 -95 -12 -3 -8 -6 -6 -6 5 -1 15 11
17 109 17 80 0 119 -4 140 -15 33 -17 40 -28 13 -18 -10 3 -15 3 -11 -1 3 -4
12 -8 20 -10 8 -1 27 -11 42 -23 24 -20 32 -35 35 -67 1 -4 7 -6 14 -3 8 3 39
-19 70 -48 63 -58 82 -64 231 -67 45 -1 64 -3 43 -5 -25 -3 -35 -8 -30 -16 5
-9 3 -9 -8 -1 -21 17 -119 15 -119 -2 0 -7 5 -16 10 -19 6 -4 9 -1 8 7 -3 15
59 21 68 6 3 -5 2 -8 -3 -7 -19 3 -27 -2 -15 -10 8 -5 1 -8 -20 -8 -18 0 -40
-3 -49 -7 -14 -6 -16 -1 -14 26 2 18 1 28 -1 21 -3 -7 -12 -9 -20 -6 -7 3 -12
9 -9 13 12 19 -25 16 -43 -3 -16 -17 -18 -26 -11 -37 9 -13 10 -13 6 1 -3 9 0
22 6 28 15 15 32 14 19 -1 -8 -10 -4 -13 15 -14 27 -2 40 -11 30 -20 -4 -4
-13 -2 -20 5 -11 8 -18 7 -31 -8 -16 -17 -16 -18 8 -14 28 6 86 -31 64 -40 -7
-3 27 -5 76 -6 83 0 88 1 83 19 -3 11 -1 18 4 14 5 -3 9 -12 9 -20 0 -11 25
-14 145 -14 80 0 145 2 145 4 0 2 -12 27 -26 55 l-27 51 -96 2 -96 2 95 5
c102 6 104 6 132 -49 7 -14 25 -43 40 -65 44 -63 76 -154 103 -292 30 -151 40
-177 73 -203 24 -19 44 -20 703 -20 l677 0 31 26 c33 27 39 45 70 200 12 56
33 136 48 178 l28 77 300 2 c272 2 303 4 335 21 19 10 84 66 143 125 l108 106
196 3 196 3 28 -34 c36 -44 85 -67 146 -68 58 -1 98 13 137 49 108 101 78 281
-56 337 -47 19 -82 19 -141 -1 -41 -14 -72 -41 -128 -111 -7 -10 -63 -13 -214
-13 -112 0 -215 -4 -229 -10 -15 -5 -72 -53 -129 -106 -150 -143 -125 -134
-370 -134 -119 0 -207 4 -205 9 2 5 35 44 73 86 260 287 376 574 376 931 0
381 -142 717 -414 981 -56 54 -138 124 -182 155 -149 104 -352 193 -535 233
-107 24 -418 29 -525 10z m525 -280 c52 -14 134 -43 182 -64 470 -208 752
-709 673 -1196 -37 -227 -128 -408 -301 -597 -164 -178 -253 -338 -300 -535
l-29 -120 -165 -7 c-164 -7 -615 -6 -781 2 l-87 3 -6 61 c-15 131 -91 315
-178 433 -25 34 -78 97 -119 140 -143 153 -220 276 -273 435 -105 316 -60 665
123 947 144 223 367 395 619 478 140 46 211 55 387 51 133 -4 176 -9 255 -31z
m-2516 -1776 c25 -11 56 -37 70 -58 30 -43 32 -51 11 -51 -14 0 -19 11 -16 37
1 6 -8 18 -20 27 -20 14 -24 14 -35 -2 -12 -15 -13 -15 -8 4 5 18 2 20 -25 16
-20 -3 -31 0 -31 7 0 7 -5 9 -12 5 -18 -11 -48 -12 -54 -2 -3 4 4 8 15 8 11 0
23 5 26 10 7 12 -48 14 -59 3 -7 -8 -11 -9 -37 -12 -5 0 -7 -5 -4 -11 3 -6 -1
-7 -9 -4 -14 6 -21 -5 -17 -28 0 -5 -5 -7 -11 -5 -7 1 -13 -8 -13 -19 -1 -12
-7 -30 -15 -40 -8 -10 -10 -15 -3 -11 8 5 10 0 4 -20 -17 -63 5 -123 44 -123
20 0 25 -5 25 -24 0 -18 8 -27 31 -35 43 -15 62 -14 53 2 -6 9 -4 9 7 1 17
-13 65 -2 62 14 -2 7 4 12 13 12 9 0 12 -5 8 -12 -4 -7 -3 -8 5 -4 14 9 5 26
-15 26 -8 0 -12 5 -9 10 3 6 1 10 -6 10 -7 0 -9 3 -6 6 4 4 13 2 21 -5 10 -8
21 -9 40 -1 36 13 36 13 29 -7 -15 -40 -99 -73 -170 -68 -92 7 -166 95 -158
189 11 138 143 215 269 155z m4619 6 c57 -24 107 -100 107 -165 0 -71 -64
-159 -128 -178 -44 -13 -101 -16 -69 -3 10 4 18 11 17 16 -1 5 4 11 11 14 7 2
9 -1 5 -8 -10 -15 26 -14 48 2 9 7 18 21 20 32 2 13 11 20 26 20 13 0 25 6 28
14 3 9 0 11 -8 6 -9 -5 -11 -4 -6 4 4 6 11 9 15 6 13 -7 22 67 15 119 -4 25
-11 46 -16 46 -5 0 -6 5 -3 10 3 6 -1 10 -10 10 -9 0 -13 5 -10 10 9 14 -8 12
-24 -2 -8 -7 -11 -8 -8 -3 3 6 -2 19 -10 30 -13 16 -15 17 -10 3 9 -24 -10
-23 -25 2 -7 11 -16 20 -21 20 -4 0 -6 -4 -3 -9 4 -5 3 -11 -1 -14 -5 -2 -3
-2 4 -1 7 2 15 -1 19 -7 4 -6 -16 -9 -55 -8 -34 1 -61 6 -61 11 0 4 -5 8 -11
8 -5 0 -7 -5 -3 -12 4 -7 3 -8 -5 -4 -6 4 -18 2 -26 -4 -19 -16 -46 -70 -35
-70 5 0 7 -7 4 -15 -4 -8 -10 -12 -15 -9 -6 3 -8 -6 -5 -20 3 -15 1 -24 -4
-21 -4 3 -7 19 -6 37 8 109 147 180 259 133z m-4756 -31 c-3 -3 -12 -4 -19 -1
-8 3 -5 6 6 6 11 1 17 -2 13 -5z m178 -63 c-6 -5 -25 10 -25 20 0 5 6 4 14 -3
8 -7 12 -15 11 -17z m4615 14 c-7 -8 -17 -15 -22 -15 -11 0 14 29 26 30 5 0 3
-7 -4 -15z m-4513 -51 c-3 -3 -12 -4 -19 -1 -8 3 -5 6 6 6 11 1 17 -2 13 -5z
m148 -1 c-11 -3 -24 -9 -29 -14 -6 -5 -14 -5 -20 0 -6 5 -29 11 -51 14 -22 2
-4 4 40 4 44 0 71 -1 60 -4z m3982 0 c-49 -3 -66 -7 -60 -16 5 -8 2 -8 -9 1
-21 17 -208 15 -208 -2 0 -7 -3 -6 -9 2 -10 17 -73 12 -79 -5 -2 -7 1 -13 8
-13 6 0 8 5 5 10 -3 6 0 10 8 10 10 0 13 -8 9 -25 l-4 -25 121 2 c67 1 114 5
105 8 -10 4 -18 14 -20 23 -2 15 1 14 23 -3 21 -17 29 -18 41 -8 11 9 14 10 9
1 -10 -16 45 -26 117 -21 31 2 56 0 56 -5 0 -5 6 -7 13 -4 6 2 23 -4 36 -14
13 -10 27 -16 32 -13 5 3 9 1 9 -5 0 -6 -9 -15 -19 -21 -29 -15 -37 -12 -15 6
19 15 19 16 -1 9 -11 -4 -25 -8 -32 -8 -7 0 -10 -4 -7 -9 3 -4 0 -8 -5 -8 -6
0 -11 7 -11 15 0 15 11 19 39 16 7 -2 10 2 6 8 -10 17 -33 13 -55 -9 -19 -19
-33 -20 -216 -20 l-196 0 -114 -111 c-78 -76 -119 -109 -129 -105 -9 3 -14 2
-11 -3 15 -24 -54 -31 -307 -29 -185 2 -215 3 -103 5 102 2 165 8 174 15 10 9
16 8 23 -3 7 -12 9 -12 9 1 0 9 3 11 8 5 4 -6 25 -12 46 -14 32 -2 38 0 33 13
-5 12 0 16 16 16 17 0 19 -2 7 -10 -8 -5 -11 -13 -6 -17 5 -4 13 0 19 9 10 15
12 15 23 0 11 -15 12 -14 7 7 -5 20 -3 23 10 18 11 -4 17 -1 17 7 0 8 7 16 15
20 8 3 20 18 26 33 8 21 12 24 19 14 5 -9 3 -20 -6 -28 -18 -18 -18 -18 6 -20
12 -1 20 4 20 13 0 8 5 12 10 9 6 -3 17 1 26 9 8 9 13 16 9 16 -4 0 1 7 9 16
11 10 13 21 7 32 -11 22 -3 44 12 35 8 -4 7 -1 -1 9 -14 18 -58 29 -80 21 -10
-4 -12 -15 -8 -38 5 -27 2 -35 -19 -49 -14 -9 -25 -23 -25 -31 0 -8 -10 -25
-22 -37 l-21 -21 5 21 c4 12 2 25 -3 28 -5 3 -7 9 -4 14 3 5 -3 11 -12 14 -14
4 -14 4 2 3 11 -1 20 -7 20 -14 0 -22 10 -21 21 1 9 19 8 23 -5 23 -40 0 -38
6 16 52 32 27 78 70 103 96 83 87 76 85 320 83 118 -1 184 -3 147 -5z m-3744
-67 c-4 -5 -10 0 -14 12 -5 12 -13 22 -19 22 -6 0 -8 5 -4 11 4 8 13 4 25 -12
9 -13 15 -28 12 -33z m3574 40 c0 -8 -8 -11 -21 -8 -19 5 -19 6 0 13 10 4 19
8 20 8 0 1 1 -5 1 -13z m83 10 c0 -3 -4 -8 -10 -11 -5 -3 -10 -1 -10 4 0 6 5
11 10 11 6 0 10 -2 10 -4z m75 -18 c6 -4 2 -8 -7 -8 -10 0 -18 7 -18 17 0 9 3
12 8 7 4 -5 12 -12 17 -16z m79 13 c-9 -9 -34 -9 -34 -1 0 5 9 8 20 7 10 -1
17 -3 14 -6z m-340 -19 c3 -5 -1 -9 -9 -9 -8 0 -12 4 -9 9 3 4 7 8 9 8 2 0 6
-4 9 -8z m-3919 -24 c-3 -12 0 -25 5 -28 5 -3 5 -11 -1 -20 -8 -12 -12 -12
-16 -2 -3 9 -9 10 -17 3 -9 -8 -13 -6 -13 4 0 8 6 15 14 15 7 0 13 8 13 18 0
16 8 32 16 32 2 0 1 -10 -1 -22z m4585 -8 c0 -5 -2 -10 -4 -10 -3 0 -8 5 -11
10 -3 6 -1 10 4 10 6 0 11 -4 11 -10z m-4643 -26 c-3 -3 -12 -4 -19 -1 -8 3
-5 6 6 6 11 1 17 -2 13 -5z m4548 -4 c4 -6 -1 -7 -11 -3 -13 5 -15 3 -9 -7 5
-9 4 -11 -4 -6 -6 4 -9 12 -6 17 8 12 22 12 30 -1z m-4578 -16 c-3 -3 -12 -4
-19 -1 -8 3 -5 6 6 6 11 1 17 -2 13 -5z m4500 -9 c0 -8 -4 -12 -9 -9 -5 3 -6
10 -3 15 9 13 12 11 12 -6z m-27 -33 c0 -13 4 -21 8 -18 4 2 8 -4 8 -15 0 -22
1 -21 -20 -13 -9 3 -13 11 -9 17 4 6 1 7 -6 2 -7 -4 -23 2 -37 16 -27 26 -20
34 31 34 19 0 25 -5 25 -23z m-4520 -6 c0 -8 -4 -17 -8 -20 -4 -2 -8 4 -8 15
0 10 4 19 8 19 4 0 8 -6 8 -14z m4640 -1 c0 -8 -2 -15 -4 -15 -2 0 -6 7 -10
15 -3 8 -1 15 4 15 6 0 10 -7 10 -15z m-4695 -25 c3 -6 -1 -7 -9 -4 -18 7 -21
14 -7 14 6 0 13 -4 16 -10z m3893 -43 c15 6 15 5 3 -11 -11 -13 -16 -14 -22
-4 -5 7 -8 18 -8 23 0 6 3 5 5 -2 3 -7 13 -9 22 -6z m-438 -14 c3 -3 -19 -3
-48 -1 -38 4 -57 1 -68 -9 -8 -8 -14 -10 -14 -4 0 6 -8 11 -18 11 -13 0 -28
-19 -48 -59 -16 -33 -34 -60 -41 -60 -7 -1 6 30 29 68 l41 69 81 -5 c44 -2 83
-7 86 -10z m245 5 c-22 -6 -43 -16 -47 -22 -5 -7 -8 -7 -8 3 0 11 -3 11 -17 0
-11 -10 -14 -10 -9 -1 5 9 -12 12 -76 14 -86 2 -87 2 177 15 11 0 2 -4 -20 -9z
m-151 -33 c11 -8 15 -15 9 -15 -7 0 -15 5 -18 11 -5 7 -14 4 -28 -8 -15 -12
-18 -13 -9 -2 6 9 9 19 5 22 -13 13 22 6 41 -8z m148 -23 c-19 -5 -36 13 -27
28 5 8 12 6 25 -7 14 -15 15 -19 2 -21z m-255 13 c0 -8 -4 -12 -9 -9 -5 3 -6
10 -3 15 9 13 12 11 12 -6z m-2343 -3 c2 -4 -5 -9 -17 -9 -17 -2 -19 0 -7 7
18 12 18 12 24 2z m2556 -3 c0 -5 -9 -9 -20 -9 -11 0 -20 4 -20 8 0 4 9 8 20
9 11 1 20 -2 20 -8z m-2585 -29 c-3 -5 -12 -10 -18 -10 -7 0 -6 4 3 10 19 12
23 12 15 0z"/>
<path d="M2680 6705 c0 -2 6 -8 13 -14 10 -8 14 -7 14 2 0 8 -6 14 -14 14 -7
0 -13 -1 -13 -2z"/>
<path d="M7400 6984 c0 -8 5 -12 10 -9 6 4 8 11 5 16 -9 14 -15 11 -15 -7z"/>
<path d="M7529 6683 c-13 -16 -12 -17 4 -4 9 7 17 15 17 17 0 8 -8 3 -21 -13z"/>
<path d="M6805 6807 c4 -9 -7 -11 -40 -9 l-45 4 3 -43 c2 -37 5 -43 21 -41 14
3 17 -1 12 -13 -3 -9 -6 -19 -6 -21 0 -2 -7 -4 -15 -4 -9 0 -12 -6 -8 -16 6
-16 7 -15 18 0 7 9 19 15 26 14 7 -2 15 5 17 16 2 12 0 16 -7 11 -6 -3 -8 -11
-5 -17 4 -7 2 -8 -4 -4 -6 4 -9 13 -5 21 5 15 16 19 42 16 7 -2 10 2 6 8 -3 6
-13 11 -21 11 -8 0 -17 7 -20 15 -4 8 -11 12 -17 8 -6 -4 -7 -1 -2 7 6 10 4
12 -8 7 -10 -3 -17 -2 -17 3 0 13 27 13 35 0 3 -5 12 -7 20 -3 9 3 21 0 29 -6
7 -6 17 -7 22 -3 4 4 3 0 -4 -9 -14 -18 -7 -30 13 -22 8 2 11 12 8 20 -4 10
-2 14 4 10 5 -3 10 0 10 8 0 8 -4 15 -9 15 -4 0 -8 -4 -8 -10 0 -5 -7 -7 -15
-4 -8 3 -14 9 -13 12 2 18 -3 32 -12 32 -5 0 -7 -6 -5 -13z"/>
<path d="M6940 6781 c0 -6 4 -13 10 -16 6 -3 7 1 4 9 -7 18 -14 21 -14 7z"/>
<path d="M6780 6758 c0 -4 7 -8 15 -8 8 0 15 4 15 8 0 5 -7 9 -15 9 -8 0 -15
-4 -15 -9z"/>
<path d="M6685 6740 c-3 -5 -1 -10 4 -10 6 0 11 5 11 10 0 6 -2 10 -4 10 -3 0
-8 -4 -11 -10z"/>
<path d="M3187 6777 c-3 -8 3 -14 16 -15 12 0 17 2 12 6 -6 4 -13 11 -16 15
-4 4 -9 2 -12 -6z"/>
<path d="M3110 6770 c0 -5 5 -10 11 -10 5 0 7 5 4 10 -3 6 -8 10 -11 10 -2 0
-4 -4 -4 -10z"/>
<path d="M3530 6764 c0 -8 5 -12 10 -9 6 4 8 11 5 16 -9 14 -15 11 -15 -7z"/>
<path d="M3148 6763 c7 -3 16 -2 19 1 4 3 -2 6 -13 5 -11 0 -14 -3 -6 -6z"/>
<path d="M3426 6758 c3 -5 10 -6 15 -3 13 9 11 12 -6 12 -8 0 -12 -4 -9 -9z"/>
<path d="M3587 6696 c-4 -10 -5 -21 -2 -24 9 -9 17 6 13 25 -3 17 -4 17 -11
-1z"/>
<path d="M3550 6690 c0 -5 4 -10 9 -10 6 0 13 5 16 10 3 6 -1 10 -9 10 -9 0
-16 -4 -16 -10z"/>
<path d="M3489 6667 c26 -28 31 -32 31 -19 0 4 -13 16 -28 26 l-27 19 24 -26z"/>
<path d="M3530 6671 c0 -18 29 -33 51 -26 17 6 19 9 8 16 -8 5 -18 9 -24 9 -5
0 -3 -5 5 -10 13 -8 12 -10 -2 -10 -10 0 -18 7 -18 15 0 8 -4 15 -10 15 -5 0
-10 -4 -10 -9z"/>
<path d="M3609 6640 c0 -3 -2 -13 -4 -23 -3 -14 0 -16 9 -8 16 13 29 2 16 -13
-5 -7 -5 -17 0 -26 8 -12 10 -11 10 4 0 11 7 27 16 37 12 13 12 19 3 25 -8 4
-10 3 -5 -4 10 -16 -17 -15 -32 0 -7 7 -12 10 -13 8z"/>
<path d="M3785 6580 c3 -5 12 -7 20 -3 21 7 19 13 -6 13 -11 0 -18 -4 -14 -10z"/>
<path d="M3703 6533 c9 -2 14 -9 11 -15 -4 -7 -2 -8 4 -4 7 4 12 2 12 -5 0 -7
2 -10 5 -7 12 12 -9 38 -29 37 -17 -1 -17 -2 -3 -6z"/>
<path d="M3118 6321 c-153 -30 -214 -236 -101 -343 83 -80 231 -74 303 13 l25
30 413 -1 412 0 0 85 0 85 -409 0 c-394 0 -410 1 -416 19 -10 31 -90 99 -131
110 -43 12 -43 12 -96 2z m127 -31 c26 -13 54 -38 74 -68 l33 -47 399 3 399 2
0 -70 c0 -47 -4 -70 -12 -70 -6 0 -8 3 -5 7 4 3 2 12 -4 20 -9 9 -8 13 0 13 6
0 11 17 11 40 0 46 13 42 -145 40 -87 -1 -114 -5 -130 -18 -19 -16 -19 -16 -6
1 12 15 10 17 -22 17 -19 0 -37 -6 -40 -12 -3 -10 -9 -10 -26 0 -19 11 -26 9
-61 -19 -22 -18 -40 -36 -40 -41 0 -4 36 -7 79 -6 76 2 79 3 70 23 -8 17 -7
16 7 -2 15 -22 24 -23 143 -24 114 -1 123 -2 96 -14 l-30 -13 45 -4 c25 -3
-135 -5 -355 -6 l-400 -2 -14 -31 c-29 -66 -153 -91 -245 -51 -39 18 -50 29
-71 74 -14 29 -24 69 -24 88 1 34 1 34 10 -9 9 -44 19 -66 19 -40 0 11 2 11
10 -1 6 -10 10 -11 10 -2 0 6 4 12 8 12 5 0 8 -20 8 -44 -1 -32 3 -42 12 -39
7 3 12 2 11 -3 -4 -22 3 -22 23 -2 20 20 22 20 34 3 9 -12 10 -22 4 -30 -7 -9
4 -12 44 -11 30 1 58 5 63 9 4 5 4 8 -2 7 -22 -5 -31 1 -31 18 0 15 8 18 48
16 51 -1 69 10 49 29 -9 9 -11 8 -8 -3 2 -8 2 -11 -1 -7 -2 4 -11 2 -20 -5
-12 -9 -12 -7 2 9 10 12 16 29 12 38 -4 13 1 15 30 12 19 -3 37 -7 41 -10 3
-3 14 4 25 16 11 12 17 17 14 10 -4 -7 1 -11 14 -10 11 1 20 4 20 7 0 16 42
49 55 44 22 -9 18 -23 -5 -19 -13 2 -20 -2 -20 -11 0 -8 -4 -12 -10 -9 -5 3
-10 1 -10 -5 0 -7 16 -10 43 -8 35 3 43 7 45 27 2 13 0 21 -5 18 -6 -4 -10 0
-10 8 0 8 5 11 11 7 16 -9 39 -9 54 2 9 7 10 3 4 -15 -5 -12 -15 -25 -22 -27
-7 -3 -10 0 -6 7 4 6 3 11 -3 11 -5 0 -9 -9 -8 -20 1 -17 8 -20 43 -17 23 1
41 4 39 6 -3 2 6 12 18 22 12 10 17 18 10 19 -6 0 -18 -7 -27 -15 -19 -20 -22
-19 -22 5 0 12 6 19 15 17 7 -1 16 3 18 9 2 8 -20 11 -71 11 -49 0 -73 -3 -69
-10 4 -6 1 -7 -8 -1 -8 5 -41 10 -74 10 -137 3 -125 -1 -125 44 0 39 -1 40
-33 40 -18 0 -39 -6 -46 -12 -10 -11 -12 -9 -9 7 1 11 -2 19 -8 18 -6 -1 -9 8
-7 21 4 19 1 23 -21 22 -15 -1 -25 -6 -24 -11 1 -6 8 -9 15 -7 7 2 13 -4 13
-13 0 -19 -20 -19 -46 0 -10 8 -23 14 -29 15 -5 0 4 -9 20 -20 l30 -20 -34 0
c-29 0 -33 -3 -28 -21 4 -16 3 -18 -9 -8 -7 6 -12 15 -9 19 3 4 -2 10 -9 13
-14 6 -14 2 -6 -38 8 -34 -1 -45 -35 -45 l-35 0 15 37 c40 96 163 140 260 93z
m12 -75 c0 -8 -3 -13 -5 -10 -3 3 -12 -1 -21 -7 -10 -8 -9 -4 3 10 23 26 23
26 23 7z m-51 -17 c4 -7 3 -8 -5 -4 -6 4 -19 2 -27 -5 -12 -10 -13 -9 -8 5 7
19 30 21 40 4z m119 -58 c5 -8 11 -8 19 -1 7 6 16 8 19 4 11 -10 8 -43 -4 -43
-5 0 -7 -6 -3 -12 5 -9 2 -9 -9 1 -9 7 -17 20 -17 28 0 8 -5 11 -12 7 -6 -4
-8 -3 -4 4 3 5 0 13 -6 15 -9 4 -10 6 -1 6 6 1 15 -4 18 -9z m66 -13 c-10 -9
-11 -8 -5 6 3 10 9 15 12 12 3 -3 0 -11 -7 -18z m543 4 c3 -4 -4 -17 -17 -27
-22 -19 -22 -19 -4 2 9 11 14 24 10 27 -3 4 -4 7 0 7 3 0 8 -4 11 -9z m-509
-11 c3 -5 1 -10 -4 -10 -6 0 -11 5 -11 10 0 6 2 10 4 10 3 0 8 -4 11 -10z
m280 -20 c3 -5 1 -10 -4 -10 -6 0 -11 5 -11 10 0 6 2 10 4 10 3 0 8 -4 11 -10z
m-218 -6 c-3 -3 -12 -4 -19 -1 -8 3 -5 6 6 6 11 1 17 -2 13 -5z m-238 -41 c0
-11 -3 -13 -6 -5 -2 6 -10 9 -15 6 -7 -4 -8 -2 -4 4 11 18 26 14 25 -5z"/>
<path d="M3645 6152 c-3 -3 0 -11 6 -19 9 -10 8 -18 -6 -33 -13 -14 -14 -20
-5 -20 20 0 40 33 28 47 -7 9 -3 11 18 10 15 -1 29 4 31 10 3 9 -7 12 -31 11
-20 -1 -38 -3 -41 -6z"/>
<path d="M3347 6134 c-4 -4 -7 -14 -7 -23 0 -11 3 -12 11 -4 6 6 10 16 7 23
-2 6 -7 8 -11 4z"/>
<path d="M7014 6317 c-49 -19 -89 -53 -109 -91 l-20 -36 -402 0 -403 0 0 -85
0 -85 410 0 409 0 23 -30 c56 -76 186 -93 271 -34 62 43 90 103 84 182 -6 77
-39 132 -98 162 -50 26 -124 34 -165 17z m157 -30 c34 -17 51 -35 72 -77 32
-63 32 -112 -3 -179 -19 -38 -85 -90 -97 -77 -4 3 -1 6 6 6 8 0 11 6 7 16 -5
13 -4 14 7 6 11 -9 19 -6 38 15 13 14 18 23 11 19 -10 -6 -12 1 -10 28 1 25 7
36 18 36 11 1 9 6 -8 20 -24 20 -17 32 15 26 13 -3 19 2 20 15 1 10 -3 19 -8
19 -6 0 -7 -4 -4 -10 3 -5 -1 -10 -10 -10 -9 0 -13 5 -10 10 3 6 1 10 -4 10
-6 0 -11 7 -11 16 0 9 -5 12 -12 8 -6 -4 -8 -3 -4 4 3 5 3 12 -1 15 -5 2 -2 2
5 1 7 -2 12 6 12 20 0 21 -4 22 -47 20 -27 -1 -43 0 -36 3 7 2 9 12 6 21 -6
14 -4 15 9 5 8 -7 18 -10 21 -6 4 3 13 0 22 -7 9 -8 15 -8 15 -2 0 14 -15 23
-56 32 -20 5 -34 4 -34 -2 0 -5 -5 -6 -12 -2 -8 5 -9 2 -5 -9 3 -9 3 -16 -1
-15 -4 0 -23 -6 -41 -14 -19 -9 -42 -13 -50 -10 -13 5 -14 3 -4 -10 7 -8 10
-18 6 -21 -9 -9 -23 -9 -22 1 1 4 1 14 0 22 -1 13 -2 13 -11 0 -8 -12 -10 -12
-10 -1 0 8 -3 12 -6 8 -4 -3 3 -18 15 -33 28 -35 27 -39 -9 -40 -24 -1 -31 3
-36 21 -7 27 23 78 39 68 6 -3 7 -1 3 5 -4 7 9 19 31 31 53 28 128 27 184 -2z
m-71 -61 c0 -3 -4 -8 -10 -11 -5 -3 -10 -1 -10 4 0 6 5 11 10 11 6 0 10 -2 10
-4z m-46 -31 c-4 -8 -8 -15 -10 -15 -2 0 -4 7 -4 15 0 8 4 15 10 15 5 0 7 -7
4 -15z m-144 -20 c0 -3 -9 -14 -19 -24 -14 -14 -21 -16 -24 -7 -4 9 -37 13
-112 14 -69 1 -104 -2 -100 -8 4 -6 -5 -5 -20 2 -21 9 -31 9 -46 0 -10 -7 -22
-12 -26 -12 -5 0 -1 5 7 10 9 6 -65 9 -207 10 -122 0 -228 3 -237 6 -12 4 -16
-5 -19 -43 l-3 -48 -2 53 -2 52 405 0 c223 -1 405 -3 405 -5z m107 -1 c-3 -3
-12 -4 -19 -1 -8 3 -5 6 6 6 11 1 17 -2 13 -5z m-551 -61 c-8 -15 -15 -25 -16
-21 0 12 23 58 27 54 3 -2 -2 -17 -11 -33z m64 22 c0 -12 -19 -12 -23 0 -4 9
-1 12 9 8 7 -3 14 -7 14 -8z m241 -10 c5 3 6 -1 3 -9 -3 -9 -10 -16 -14 -16
-12 0 -18 22 -11 40 4 12 6 12 9 -3 2 -9 8 -15 13 -12z m52 18 c-7 -3 -13 -11
-13 -20 0 -11 8 -13 35 -10 20 3 42 10 49 16 9 8 16 8 20 2 4 -5 2 -12 -4 -16
-17 -11 -11 -25 14 -35 19 -7 23 -14 19 -31 -4 -15 -2 -20 5 -15 6 4 12 -3 14
-16 2 -13 9 -22 17 -20 8 2 11 -3 8 -12 -4 -11 -1 -13 10 -9 12 5 14 3 8 -8
-7 -12 -6 -12 7 -1 12 10 18 9 28 -3 15 -18 61 -20 78 -3 9 9 12 8 12 -5 0
-14 -10 -17 -52 -17 -64 0 -131 31 -155 71 l-17 29 -403 0 c-358 0 -403 2
-403 16 0 9 5 12 12 8 7 -4 27 -9 45 -11 24 -3 31 0 27 10 -3 10 4 14 26 15
25 1 30 -3 26 -15 -6 -14 -4 -14 17 0 22 14 98 21 196 18 13 -1 31 5 39 11 13
10 14 10 8 1 -10 -17 55 -18 72 -1 9 9 12 9 12 0 0 -8 12 -12 34 -10 27 2 32
5 29 22 -3 17 -1 16 7 -3 9 -21 15 -23 50 -18 26 3 38 1 34 -5 -4 -7 0 -7 12
0 11 5 25 7 32 5 19 -7 44 5 37 17 -5 8 -12 7 -22 -2 -15 -12 -15 -11 -2 10
12 19 12 24 0 31 -9 6 -4 8 15 8 16 0 23 -2 17 -4z m-438 -12 c3 -5 2 -12 -3
-15 -5 -3 -9 1 -9 9 0 17 3 19 12 6z m475 5 c0 -2 -7 -7 -16 -10 -8 -3 -12 -2
-9 4 6 10 25 14 25 6z m-248 -28 c-7 -7 -12 -8 -12 -2 0 14 12 26 19 19 2 -3
-1 -11 -7 -17z m123 2 c3 -5 1 -10 -4 -10 -6 0 -11 5 -11 10 0 6 2 10 4 10 3
0 8 -4 11 -10z m-578 -36 c-3 -3 -12 -4 -19 -1 -8 3 -5 6 6 6 11 1 17 -2 13
-5z m983 -84 c0 -5 -7 -7 -15 -4 -8 4 -15 8 -15 10 0 2 7 4 15 4 8 0 15 -4 15
-10z"/>
<path d="M7046 6292 c-2 -4 -1 -14 3 -21 6 -9 11 -10 15 -2 4 6 2 11 -4 11 -6
0 -8 5 -5 10 3 6 4 10 1 10 -3 0 -7 -4 -10 -8z"/>
<path d="M7010 6271 c0 -6 4 -13 10 -16 6 -3 7 1 4 9 -7 18 -14 21 -14 7z"/>
<path d="M7224 6103 c10 -12 16 -29 12 -38 -3 -9 -2 -13 4 -10 6 3 10 18 10
32 0 15 -3 23 -7 20 -3 -4 -13 -1 -22 5 -10 8 -9 5 3 -9z"/>
<path d="M6843 6103 c-22 -8 -14 -23 12 -23 17 0 25 5 24 18 0 10 -3 12 -6 5
-2 -7 -9 -13 -14 -13 -6 0 -7 5 -4 10 7 11 6 11 -12 3z"/>
<path d="M6890 6081 c0 -5 7 -12 16 -15 14 -5 15 -4 4 9 -14 17 -20 19 -20 6z"/>
<path d="M4514 5774 c-40 -19 -64 -62 -64 -114 0 -34 6 -48 34 -76 27 -27 42
-34 73 -34 21 0 288 0 594 -1 406 -1 562 2 578 11 30 15 61 69 61 103 0 50
-27 97 -64 112 -53 23 -1166 22 -1212 -1z"/>
<path d="M4596 5348 c-19 -26 -21 -90 -4 -121 27 -52 101 -137 153 -176 261
-197 650 -148 850 107 58 74 77 128 60 169 -7 16 -20 33 -30 37 -9 3 -241 6
-515 6 l-499 0 -15 -22z"/>
<path d="M4381 4690 c-5 -4 -55 -116 -99 -222 -2 -4 46 -8 106 -8 l110 0 71
104 c39 58 73 111 76 118 4 10 -22 13 -126 13 -72 0 -134 -2 -138 -5z"/>
<path d="M8300 4399 c-112 -19 -213 -89 -262 -181 -19 -36 -23 -59 -23 -133 0
-81 3 -95 30 -143 48 -88 115 -131 309 -198 145 -50 186 -93 155 -165 -37 -92
-231 -91 -359 2 -23 17 -45 29 -50 27 -5 -2 -34 -37 -65 -78 l-56 -75 37 -33
c91 -79 219 -116 374 -110 92 4 115 8 171 35 86 40 132 82 166 151 23 47 28
70 28 133 -1 150 -69 224 -287 309 -169 66 -195 81 -209 129 -14 47 6 93 51
116 61 32 188 17 271 -32 34 -20 32 -22 103 79 l47 68 -48 30 c-96 61 -260 91
-383 69z"/>
<path d="M2583 4393 l-123 -4 0 -534 0 -535 125 0 125 0 0 540 c0 297 -1 539
-2 538 -2 -1 -58 -4 -125 -5z"/>
<path d="M5750 3858 l0 -538 120 0 120 0 0 534 0 535 -120 3 -120 3 0 -537z"/>
<path d="M7401 4390 l-125 -5 -186 -490 c-102 -269 -193 -509 -203 -532 l-17
-43 125 0 124 0 14 28 c8 15 27 64 43 109 l29 83 201 0 202 0 40 -107 40 -108
126 -3 c88 -2 126 1 126 9 0 19 -398 1051 -408 1059 -4 3 -63 3 -131 0z m6
-648 c-71 -1 -131 -1 -133 0 -1 2 27 85 64 186 l66 182 67 -182 67 -183 -131
-3z"/>
<path d="M1590 3855 l0 -535 125 0 125 0 0 205 0 205 195 0 195 0 0 105 0 105
-195 0 -195 0 0 120 0 120 223 0 223 0 1 105 1 105 -349 0 -349 0 0 -535z"/>
<path d="M2920 3855 l0 -535 229 0 c261 0 346 12 445 60 81 40 162 112 203
182 63 105 90 293 62 430 -29 138 -128 272 -248 337 -103 55 -148 61 -433 61
l-258 0 0 -535z m497 310 c80 -24 130 -67 166 -143 29 -61 32 -75 32 -167 0
-116 -20 -174 -83 -238 -65 -68 -101 -81 -239 -85 l-123 -4 0 326 0 326 98 0
c58 0 119 -6 149 -15z"/>
<path d="M4040 3855 l0 -535 348 2 347 3 3 98 3 97 -226 0 -225 0 0 120 0 120
195 0 195 0 0 106 0 105 -195 -3 -195 -3 0 108 0 107 220 0 220 0 0 105 0 105
-345 0 -345 0 0 -535z"/>
<path d="M4950 3855 l0 -535 330 0 330 0 0 105 0 105 -205 2 -206 3 1 428 0
427 -125 0 -125 0 0 -535z"/>
<path d="M6140 4285 l0 -105 140 0 140 0 0 -427 -1 -428 123 0 123 0 2 215 c1
118 3 311 3 428 l0 212 145 0 145 0 0 105 0 105 -410 0 -410 0 0 -105z"/>
</g>
</svg>
